<svg version="1.1" preserveAspectRatio="none" xmlns="http://www.w3.org/2000/svg" width="500" height="500" viewBox="0 0 500 500"><rect width="100%" height="100%" fill="#FFFFFF" fill-opacity="1"/><svg viewBox="1.8078 107.3156 312.3399 120" width="333" height="127.93754496303546" x="83.5px" y="186.0312px" xmlns="http://www.w3.org/2000/svg" xmlns:xlink="http://www.w3.org/1999/xlink" preserveAspectRatio="none"><defs></defs><style>.companyName {fill:#182145;fill-opacity:1;}.icon1 {fill:#182145;fill-opacity:1;}.icon2 {fill:#E35B34;fill-opacity:1;}.icon3 {fill:#E3D454;fill-opacity:1;}.icon3-str {stroke:#E3D454;stroke-opacity:1;}</style><g opacity="1" transform="rotate(0 1.8078 107.3156)">
<svg width="106.3057" height="120" x="1.8078" y="107.3156" version="1.1" preserveAspectRatio="none" viewBox="8.399999618530273 2.924999713897705 83.60501861572266 94.37499237060547">
  <g transform="matrix(1 0 0 1 0 0)" class="icon1"><path d="M88.5,23.9l-34.6-20c-2.2-1.3-5-1.3-7.2,0L12,23.9c-2.2,1.3-3.6,3.7-3.6,6.2v40c0,2.6,1.4,5,3.6,6.2l34.6,20  c1.1,0.6,2.3,1,3.6,1s2.5-0.3,3.6-1l34.6-20c2.2-1.3,3.6-3.7,3.6-6.2v-40C92.1,27.5,90.7,25.2,88.5,23.9z M71,49.2l-9.6,17.9  c0,0.1-3.8,7.5-11.2,7.5c-0.7,0-3-0.1-3.6-0.2c-8.6-1.6-10.8-9.4-10.8-9.5l-6.3-19.6c-0.1-0.3-0.6-1.4-0.3-2.5  c0.2-0.6,0.7-1.1,1.5-1.5c0.8-0.4,1.6-0.5,2.2-0.1c1,0.4,1.3,1.4,1.3,1.4c1.5,4,3.2,7.5,3.9,7.6c0.1,0,0.2-0.2,0.3-0.3  c0.3-0.6,0-1.7-0.1-2l-3-12.4c0-0.2-1.2-4,1.2-5c0.7-0.2,1.4-0.2,2,0c1,0.6,1.4,1.7,1.4,1.7L44,45.3c0.2,0.6,0.5,2,1.1,1.9  c0.1,0,0.2-0.1,0.3-0.2c0.2-0.3,0.2-1.4,0.2-1.4l-1.2-15.4c-0.2-1.3-0.1-3.8,2.4-4.3c1-0.2,1.8-0.1,2.4,0.3c1,0.7,1.2,1.9,1.2,2  c0,0,1.2,13.7,1.5,16.3c0.1,1.5,0.3,2,0.5,2c0.8,0,1-1.5,1-1.5L55,32.6c0-0.3,0.1-2,1.1-2.9c0.6-0.4,1.2-0.6,1.9-0.5  c0.9,0.1,1.6,0.4,2,1c0.6,0.8,0.5,1.9,0.4,2l-1.7,17.4c0,0.7,0.2,2.8,1.2,3c1.3,0.2,2-0.9,2-0.9l4.1-6c0.7-0.8,2.5-2.1,4.2-0.8  C71.8,46,71.4,48.2,71,49.2z"></path><path d="M48.6,56.7c-2.8-4.5-6.8-1.2-6.8-1.2c-2.7,2.4,0,5.7,0,5.7c1,1.8,6.1,6.7,6.7,7.2l0,0c0.5-0.4,5.7-5.4,6.8-7.2  c0,0,2.7-3.3,0-5.8C55.3,55.5,51.4,52.2,48.6,56.7z"></path></g>
</svg>
</g><g opacity="1" transform="rotate(0 138.1135 107.3156)">
<svg width="176.0342" height="120" x="138.1135" y="107.3156" version="1.1" preserveAspectRatio="none" viewBox="-0.36 -28.48 159.12000000000003 108.48">
  <g transform="matrix(1 0 0 1 0 0)" class="companyName"><path id="id-D6z1nYkh13" d="M14.80 0.48Q10.52 0.48 7.06-1.38Q3.60-3.24 1.62-6.54Q-0.36-9.84-0.36-14L-0.36-14Q-0.36-18.16 1.62-21.46Q3.60-24.76 7.06-26.62Q10.52-28.48 14.84-28.48L14.84-28.48Q18.48-28.48 21.42-27.20Q24.36-25.92 26.36-23.52L26.36-23.52L22.20-19.68Q19.36-22.96 15.16-22.96L15.16-22.96Q12.56-22.96 10.52-21.82Q8.48-20.68 7.34-18.64Q6.20-16.60 6.20-14L6.20-14Q6.20-11.40 7.34-9.36Q8.48-7.32 10.52-6.18Q12.56-5.04 15.16-5.04L15.16-5.04Q19.36-5.04 22.20-8.36L22.20-8.36L26.36-4.52Q24.36-2.08 21.40-0.80Q18.44 0.48 14.80 0.48L14.80 0.48Z M30.72 0L30.72-28L37.20-28L37.20-5.28L51.24-5.28L51.24 0L30.72 0Z M66.96 0.48Q60.96 0.48 57.62-2.84Q54.28-6.16 54.28-12.32L54.28-12.32L54.28-28L60.76-28L60.76-12.56Q60.76-5.04 67-5.04L67-5.04Q70.04-5.04 71.64-6.86Q73.24-8.68 73.24-12.56L73.24-12.56L73.24-28L79.64-28L79.64-12.32Q79.64-6.16 76.30-2.84Q72.96 0.48 66.96 0.48L66.96 0.48Z M106.60-14.56Q109-13.80 110.36-12.02Q111.72-10.24 111.72-7.64L111.72-7.64Q111.72-3.96 108.86-1.98Q106 0 100.52 0L100.52 0L86.04 0L86.04-28L99.72-28Q104.84-28 107.58-26.04Q110.32-24.08 110.32-20.72L110.32-20.72Q110.32-18.68 109.34-17.08Q108.36-15.48 106.60-14.56L106.60-14.56ZM98.92-23.12L92.48-23.12L92.48-16.52L98.92-16.52Q101.32-16.52 102.56-17.36Q103.80-18.20 103.80-19.84L103.80-19.84Q103.80-21.48 102.56-22.30Q101.32-23.12 98.92-23.12L98.92-23.12ZM100.04-4.88Q102.60-4.88 103.90-5.72Q105.20-6.56 105.20-8.32L105.20-8.32Q105.20-11.80 100.04-11.80L100.04-11.80L92.48-11.80L92.48-4.88L100.04-4.88Z M23.80 12L30.24 12L18.12 40L11.72 40L-0.36 12L6.64 12L15.16 32L23.80 12Z M32.56 40L32.56 12L39.04 12L39.04 40L32.56 40Z M52.12 34.80L67.36 34.80L67.36 40L45.68 40L45.68 12L66.84 12L66.84 17.20L52.12 17.20L52.12 23.28L65.12 23.28L65.12 28.32L52.12 28.32L52.12 34.80Z M24.24 80L21.76 74L8.76 74L6.28 80L-0.36 80L12.12 52L18.52 52L31.04 80L24.24 80ZM10.84 69.08L19.72 69.08L15.28 58.36L10.84 69.08Z M52.92 52L59.36 52L47.24 80L40.84 80L28.76 52L35.76 52L44.28 72L52.92 52Z M68.12 74.80L83.36 74.80L83.36 80L61.68 80L61.68 52L82.84 52L82.84 57.20L68.12 57.20L68.12 63.28L81.12 63.28L81.12 68.32L68.12 68.32L68.12 74.80Z M107.80 52L114.20 52L114.20 80L108.88 80L94.92 63L94.92 80L88.52 80L88.52 52L93.88 52L107.80 69L107.80 52Z M120.84 80L120.84 52L127.32 52L127.32 80L120.84 80Z M158.76 80L151.80 80L146.40 72.20L146.08 72.20L140.44 72.20L140.44 80L133.96 80L133.96 52L146.08 52Q149.80 52 152.54 53.24Q155.28 54.48 156.76 56.76Q158.24 59.04 158.24 62.16L158.24 62.16Q158.24 65.28 156.74 67.54Q155.24 69.80 152.48 71L152.48 71L158.76 80ZM151.68 62.16Q151.68 59.80 150.16 58.54Q148.64 57.28 145.72 57.28L145.72 57.28L140.44 57.28L140.44 67.04L145.72 67.04Q148.64 67.04 150.16 65.76Q151.68 64.48 151.68 62.16L151.68 62.16Z"/></g>
</svg>
</g></svg></svg>