<svg version="1.1" preserveAspectRatio="none" xmlns="http://www.w3.org/2000/svg" width="500" height="500" viewBox="0 0 500 500"><rect width="100%" height="100%" fill="#EDECEB" fill-opacity="1"/><svg viewBox="0.5178 -103.5984 398.9644 467.321" width="284.2909802897794" height="333" x="107.8545px" y="83.5px" xmlns="http://www.w3.org/2000/svg" xmlns:xlink="http://www.w3.org/1999/xlink" preserveAspectRatio="none"><defs></defs><style>.companyName {fill:#5B4B42;fill-opacity:1;}.icon1 {fill:#B3D0D9;fill-opacity:1;}.icon2 {fill:#99A08E;fill-opacity:1;}.icon3 {fill:#DFC4B5;fill-opacity:1;}.icon3-str {stroke:#DFC4B5;stroke-opacity:1;}</style><g opacity="1" transform="rotate(0 0.5178 -103.5984)">
<svg width="398.9644" height="395.321" x="0.5178" y="-103.5984" version="1.1" preserveAspectRatio="none" viewBox="4.018990516662598 3.8572607040405273 90.1519775390625 89.32874298095703">
  <g transform="matrix(1 0 0 1 0 0)" class="icon1"><path d="M45.778,67.619c0.315,1.811,0.435,7.352,0.223,10.401c-0.228,3.272-1.815,14.726-2.158,15.078  c-0.055,0.058-0.15,0.088-0.252,0.088c-0.063,0-0.126-0.012-0.186-0.035c-0.244-0.097-0.266-0.313-0.219-0.762  c0.073-0.729,0.442-3.323,0.822-5.782c0.148-0.963,0.277-2.026,0.281-2.32c0.004-0.308,0.101-0.942,0.214-1.415  c0.443-1.83,0.659-4.33,0.699-8.107c0.042-3.975-0.102-5.872-0.642-8.459c-0.363-1.74-1.959-7.043-2.847-9.455  c-1.393-3.785-5.955-12.695-7.286-14.231c-0.41-0.475-0.799-0.64-1.127-0.473c-0.606,0.307-0.963,1.816-0.508,3.812  c0.228,0.996,1.289,3.967,2.228,6.232c0.808,1.947,1.218,3.526,1.218,4.69c0,0.926-0.05,1.109-0.442,1.642  c-0.531,0.717-1.104,0.988-1.944,0.89c-0.83-0.093-1.483-0.429-2.33-1.197c-0.375-0.342-1.294-1.159-2.048-1.822  c-1.41-1.24-3.84-3.645-3.84-3.92c-0.014-0.094-0.405-0.98-0.964-2.143c-2.379-4.947-2.429-5.078-2.66-7.045  c-0.223-1.891-0.198-3.557,0.081-5.571c0.29-2.096-0.305-4.216-1.413-5.041c-0.18-0.135-0.316-0.193-0.367-0.202  c-0.038,0.106-0.195,0.756-0.398,1.778c-0.186,0.942-0.402,1.985-0.473,2.277c-0.119,0.485,0.036,10.088,0.186,11.545  c0.08,0.78,0.591,1.828,1.887,3.867c0.534,0.842,1.139,1.859,1.347,2.267c0.349,0.684,0.369,0.677,0.739,0.61  c0.11-0.021,0.38-0.061,0.459,0.036c0.024,0.031,0.03,0.072,0.015,0.109c-0.129,0.3-1.355,1.933-1.582,1.936  c-0.001,0-0.002,0-0.003,0c-0.103,0-0.186-0.077-0.223-0.206c-0.056-0.19-0.006-0.462,0.157-0.562  c0.042-0.025,0.069-0.066,0.084-0.126c0.098-0.412-0.419-1.517-1.58-3.377c-1.262-2.022-2.04-3.599-2.136-4.325  c-0.042-0.317-0.137-2.957-0.212-5.885c-0.072-2.867-0.204-5.637-0.288-6.048c-0.328-1.597-1.177-2.977-1.934-3.141  c-0.217-0.047-0.363-0.054-0.413-0.049c-0.078,0.188-0.277,1.587-0.542,4.298c-0.125,1.293-0.313,2.911-0.419,3.607  c-0.434,2.866-0.428,3.093,0.115,4.854c0.272,0.881,0.759,2.568,1.085,3.762c0.649,2.377,1.206,3.486,2.479,4.942  c0.379,0.434,1.119,1.409,1.649,2.175c0.568,0.82,1.011,1.317,1.1,1.347c0.001,0,0.002,0,0.004,0c0.075,0,0.142,0.031,0.187,0.091  c0.129,0.169,0.088,0.556-0.15,1.43c-0.163,0.595-0.305,0.9-0.546,0.852c-0.249-0.055-0.275-0.299-0.243-0.861  c0.039-0.67-0.003-0.777-0.744-1.926c-0.438-0.678-1.224-1.671-1.752-2.213c-1.604-1.647-1.869-2.257-3.534-8.155  c-0.894-3.164-2.216-6.681-3.012-8.006c-0.454-0.758-1.589-1.688-2.058-1.688c-0.066,0-0.102,0.007-0.116,0.024  c-0.052,0.059-0.022,0.324,0.018,0.64c0.325,2.548,0.994,6.16,1.835,9.91c1.2,5.356,1.597,6.596,2.494,7.798  c0.326,0.437,1.741,1.928,3.154,3.325c1.421,1.405,2.951,3.061,3.413,3.69s0.837,1.013,0.933,1.05  c0.15-0.046,0.304,0.139,0.377,0.331c0.152,0.403,0.53,2.525,0.379,2.679c-0.054,0.053-0.125,0.068-0.2,0.046  c-0.207-0.061-0.446-0.409-0.524-0.761c-0.135-0.62-1.127-2.302-1.965-3.332c-0.992-1.219-10.33-10.46-11.354-11.236  c-1.433-1.087-2.602-1.517-2.974-1.378c-0.073,0.028-0.113,0.076-0.128,0.149c-0.014,0.313,2.425,3.555,6.079,7.877  c0.747,0.885,1.672,2.066,2.062,2.635c0.913,1.328,2.566,3.38,4.112,5.106c1.773,1.979,3.223,3.709,5.744,6.854  c3.03,3.781,6.818,7.74,10.133,10.589c1.658,1.424,2.625,1.873,4.264,1.873c0.173,0,0.354-0.005,0.544-0.015  c1.442-0.071,1.919-0.286,3.188-1.436c0.946-0.858,1.041-0.756,1.078-0.719c0.04,0.039,0.06,0.096,0.058,0.167  c-0.006,0.317-0.438,0.971-0.964,1.456c-0.342,0.316-1.004,0.758-1.446,0.963c-0.737,0.343-0.991,0.382-2.469,0.382  c-1.587,0-1.686-0.019-2.641-0.504c-0.543-0.275-1.233-0.707-1.539-0.962c-0.192-0.16-0.358-0.295-0.458-0.374  c-0.009,0.245-0.017,0.822-0.02,1.588c-0.006,1.466-0.071,1.979-0.41,3.233c-0.313,1.16-0.926,3.131-1.499,3.283  c-0.075,0.02-0.184,0.021-0.288-0.086c-0.029-0.028-0.104-0.104,0.458-1.633c0.549-1.491,0.951-3.613,0.957-5.045  c0.002-0.383-0.112-1.103-0.255-1.604c-0.252-0.884-0.309-0.953-3.056-3.712c-3.585-3.598-4.371-4.472-7.646-8.496  c-1.466-1.801-3.472-4.208-4.471-5.366c-1.979-2.292-3.758-4.493-5.6-6.927c-1.818-2.4-4.379-5.665-5.372-6.849  c-0.907-1.081-1.428-1.943-1.428-2.364c0-0.231,0.193-0.456,0.309-0.569c0.261-0.257,0.592-0.422,0.847-0.422  c0.003,0,0.006,0,0.009,0c1.189,0.018,2.967,1.198,5.434,3.607l1.578,1.543l-0.181-0.398c-0.193-0.428-0.539-1.473-0.77-2.329  c-0.454-1.68-2.153-10.071-2.49-12.3c-0.119-0.78-0.245-1.591-0.282-1.806c-0.062-0.356,0.075-0.659,0.384-0.853  c0.477-0.294,1.407-0.306,2.19,0.265c0.843,0.612,2.218,2.873,2.726,4.479c0.115,0.364,0.222,0.573,0.283,0.662  c0-0.001,0-0.003,0-0.005c0.006-0.579,0.581-6.648,0.76-8.019c0.222-1.69,0.365-2.114,0.767-2.269  c0.28-0.107,0.621-0.075,0.982,0.094c0.886,0.412,1.772,1.535,2.208,2.796c0.012,0.036,0.035,0.103,0.057,0.153  c0.063-0.194,0.164-0.769,0.286-1.47c0.014-0.076,0.326-1.856,0.521-1.979c0.235-0.147,0.535-0.181,0.874-0.091  c0.618,0.162,1.256,0.705,1.623,1.383c0.774,1.426,0.844,2.014,0.744,6.297c-0.11,4.702-0.056,5.106,0.97,7.212  c0.415,0.852,1.252,2.62,1.866,3.943l1.088,2.346l2.052,1.897c1.822,1.685,2.667,2.387,4.303,3.579  c0.429,0.313,0.916,0.392,1.337,0.216c0.442-0.185,0.744-0.614,0.829-1.18c0.158-1.053-0.407-3.271-1.375-5.397  c-1.275-2.803-2.238-6.077-2.238-7.617c0-1.791,0.69-3.014,1.801-3.191c0.736-0.118,1.254,0.285,2.198,1.724  c2.727,4.154,6.363,11.783,7.942,16.659C44.444,61.948,45.478,65.894,45.778,67.619z M32.993,72.369  c-2.567-1.408-3.325-2.148-3.859-3.771c-0.203-0.618-0.444-1.627-0.538-2.248c-0.094-0.627-0.354-1.723-0.582-2.441  c-0.315-1.004-0.559-1.455-0.837-1.558c-0.121-0.043-0.246-0.023-0.376,0.059c-0.216,0.137-0.139,0.38,0.103,0.943  c0.469,1.092,0.687,1.889,0.864,3.16c0.087,0.628,0.355,1.736,0.598,2.471c0.39,1.181,0.54,1.443,1.24,2.162  c0.442,0.455,1.229,1.051,1.79,1.355c4.408,2.39,5.279,3.029,7.171,5.267c1.004,1.186,1.384,1.347,1.542,1.347  c0.038,0,0.063-0.01,0.081-0.016c0.098-0.036,0.147-0.134,0.147-0.292c0-0.384-1.64-2.302-2.794-3.362  C36.175,74.187,35.579,73.785,32.993,72.369z"></path><path d="M58.002,79.098c-0.098-0.036-0.147-0.134-0.147-0.292c0-0.384,1.64-2.302,2.793-3.362c1.371-1.258,1.966-1.66,4.55-3.075  c2.567-1.407,3.325-2.147,3.859-3.771c0.205-0.624,0.446-1.633,0.538-2.248c0.093-0.621,0.354-1.717,0.582-2.441  c0.315-1.003,0.559-1.454,0.837-1.558c0.118-0.042,0.245-0.024,0.377,0.059c0.216,0.137,0.139,0.38-0.103,0.943  c-0.47,1.092-0.688,1.889-0.864,3.16c-0.087,0.625-0.355,1.733-0.599,2.471c-0.39,1.182-0.541,1.444-1.239,2.162  c-0.444,0.455-1.23,1.051-1.791,1.355c-4.406,2.389-5.277,3.028-7.171,5.267c-1.003,1.186-1.383,1.347-1.541,1.347  C58.045,79.114,58.02,79.104,58.002,79.098z M93.016,49.546c-0.003,0-0.006,0-0.009,0c-1.19,0.018-2.968,1.198-5.435,3.607  l-1.578,1.543l0.181-0.398c0.193-0.428,0.539-1.473,0.77-2.329c0.455-1.683,2.154-10.073,2.491-12.3  c0.122-0.81,0.246-1.602,0.281-1.806c0.062-0.356-0.074-0.659-0.384-0.852c-0.478-0.3-1.406-0.308-2.189,0.264  c-0.843,0.611-2.219,2.872-2.727,4.479c-0.115,0.364-0.222,0.573-0.283,0.662c0-0.001,0-0.003,0-0.005  c-0.006-0.579-0.581-6.648-0.76-8.019c-0.221-1.69-0.364-2.114-0.766-2.269c-0.282-0.105-0.621-0.074-0.982,0.093  c-0.887,0.413-1.773,1.536-2.209,2.797c-0.012,0.036-0.035,0.103-0.056,0.153c-0.064-0.194-0.165-0.769-0.287-1.47  c-0.014-0.076-0.326-1.857-0.521-1.979c-0.235-0.146-0.535-0.18-0.874-0.091c-0.618,0.162-1.256,0.705-1.623,1.383  c-0.774,1.426-0.844,2.014-0.743,6.297c0.109,4.704,0.055,5.108-0.971,7.212c-0.435,0.896-1.272,2.664-1.866,3.943l-1.088,2.346  l-2.052,1.897c-1.817,1.681-2.661,2.383-4.302,3.579c-0.431,0.313-0.917,0.392-1.339,0.216c-0.441-0.185-0.743-0.615-0.828-1.18  c-0.158-1.053,0.407-3.271,1.375-5.397c1.275-2.803,2.238-6.077,2.238-7.617c0-1.791-0.69-3.014-1.801-3.191  c-0.736-0.12-1.254,0.284-2.197,1.724c-2.727,4.153-6.364,11.782-7.943,16.659c-0.794,2.456-1.828,6.402-2.127,8.12  c-0.315,1.814-0.434,7.355-0.223,10.401c0.228,3.272,1.815,14.726,2.158,15.079c0.055,0.057,0.15,0.087,0.252,0.087  c0.063,0,0.127-0.012,0.186-0.035c0.244-0.096,0.266-0.313,0.22-0.762c-0.074-0.726-0.451-3.373-0.823-5.782  c-0.148-0.963-0.277-2.026-0.281-2.32c-0.004-0.308-0.101-0.942-0.214-1.415c-0.443-1.834-0.659-4.334-0.699-8.107  c-0.042-3.97,0.102-5.867,0.642-8.459c0.363-1.74,1.959-7.043,2.847-9.455c1.392-3.783,5.954-12.693,7.286-14.231  c0.41-0.475,0.797-0.641,1.127-0.473c0.606,0.307,0.963,1.816,0.508,3.812c-0.227,0.996-1.289,3.967-2.228,6.232  c-0.808,1.947-1.218,3.526-1.218,4.69c0,0.914,0.054,1.113,0.442,1.642c0.531,0.718,1.105,0.988,1.944,0.89  c0.83-0.093,1.483-0.428,2.33-1.197c0.375-0.342,1.294-1.159,2.048-1.822c1.41-1.24,3.84-3.645,3.84-3.915  c0.014-0.099,0.405-0.985,0.964-2.147c2.379-4.947,2.429-5.078,2.66-7.045c0.223-1.891,0.198-3.557-0.081-5.571  c-0.29-2.096,0.305-4.216,1.414-5.041c0.175-0.131,0.309-0.19,0.362-0.201c0.05,0.14,0.204,0.781,0.402,1.777  c0.19,0.969,0.403,1.99,0.474,2.277c0.118,0.487-0.037,10.09-0.187,11.545c-0.08,0.78-0.591,1.828-1.887,3.867  c-0.534,0.842-1.139,1.859-1.347,2.267c-0.351,0.687-0.376,0.677-0.739,0.61c-0.11-0.021-0.38-0.061-0.459,0.036  c-0.024,0.031-0.03,0.072-0.015,0.109c0.13,0.3,1.356,1.933,1.582,1.936c0.001,0,0.002,0,0.003,0c0.103,0,0.187-0.077,0.224-0.207  c0.055-0.19,0.004-0.461-0.158-0.561c-0.042-0.025-0.069-0.066-0.084-0.126c-0.098-0.412,0.419-1.517,1.58-3.377  c1.262-2.02,2.04-3.597,2.136-4.325c0.042-0.317,0.137-2.957,0.212-5.885c0.072-2.867,0.204-5.637,0.288-6.048  c0.328-1.597,1.177-2.977,1.934-3.141c0.219-0.048,0.365-0.053,0.413-0.049c0.078,0.186,0.277,1.585,0.542,4.298  c0.123,1.275,0.312,2.893,0.419,3.607c0.434,2.864,0.429,3.091-0.115,4.854c-0.272,0.881-0.759,2.568-1.085,3.762  c-0.648,2.375-1.204,3.484-2.479,4.942c-0.382,0.437-1.122,1.412-1.65,2.175c-0.568,0.82-1.011,1.317-1.09,1.346  c-0.086,0-0.153,0.031-0.2,0.092c-0.129,0.169-0.088,0.557,0.15,1.43c0.162,0.595,0.299,0.901,0.546,0.852  c0.249-0.055,0.275-0.299,0.243-0.861c-0.038-0.671,0.003-0.779,0.744-1.926c0.438-0.678,1.224-1.671,1.752-2.213  c1.604-1.647,1.869-2.257,3.534-8.155c0.894-3.164,2.216-6.681,3.012-8.006c0.454-0.758,1.589-1.688,2.058-1.688  c0.066,0,0.102,0.007,0.116,0.024c0.052,0.059,0.022,0.324-0.018,0.64c-0.325,2.544-0.993,6.156-1.834,9.91  c-1.201,5.357-1.598,6.596-2.495,7.798c-0.325,0.437-1.74,1.928-3.154,3.325c-1.419,1.403-2.949,3.059-3.412,3.69  c-0.462,0.629-0.838,1.013-0.933,1.05c-0.139-0.035-0.304,0.136-0.378,0.331c-0.152,0.405-0.528,2.528-0.377,2.679  c0.051,0.052,0.122,0.069,0.198,0.046c0.207-0.06,0.446-0.408,0.524-0.762c0.136-0.619,1.128-2.301,1.965-3.33  c0.99-1.218,10.329-10.459,11.354-11.237c1.431-1.085,2.599-1.522,2.974-1.378c0.073,0.028,0.114,0.076,0.128,0.147  c0.015,0.315-2.425,3.557-6.079,7.879c-0.747,0.885-1.672,2.066-2.062,2.635c-0.908,1.321-2.561,3.373-4.111,5.106  c-1.782,1.989-3.231,3.719-5.744,6.854c-3.077,3.839-6.771,7.698-10.134,10.589c-1.833,1.574-2.819,1.963-4.808,1.858  c-1.442-0.071-1.919-0.286-3.188-1.436c-0.949-0.857-1.042-0.756-1.079-0.719c-0.04,0.039-0.059,0.096-0.058,0.167  c0.007,0.318,0.439,0.972,0.964,1.456c0.342,0.316,1.004,0.758,1.446,0.963c0.737,0.343,0.991,0.382,2.469,0.382  c1.587,0,1.686-0.019,2.641-0.504c0.544-0.275,1.234-0.707,1.539-0.962c0.192-0.16,0.358-0.295,0.458-0.374  c0.009,0.245,0.017,0.822,0.02,1.588c0.006,1.462,0.071,1.976,0.41,3.233c0.313,1.16,0.926,3.131,1.499,3.283  c0.075,0.02,0.184,0.021,0.288-0.086c0.028-0.028,0.104-0.104-0.457-1.633c-0.549-1.487-0.951-3.609-0.958-5.045  c-0.002-0.383,0.112-1.103,0.255-1.604c0.252-0.884,0.309-0.953,3.056-3.712c3.585-3.598,4.371-4.472,7.646-8.496  c1.466-1.801,3.472-4.208,4.471-5.366c1.986-2.301,3.766-4.502,5.6-6.927c1.818-2.4,4.379-5.665,5.372-6.849  c0.908-1.082,1.429-1.944,1.429-2.364c0-0.231-0.193-0.456-0.309-0.569C93.602,49.711,93.271,49.546,93.016,49.546z"></path><path d="M53.4,37.06c-0.711,1.341-0.885,1.947-0.64,2.239c0.1,0.118,0.26,0.18,0.513,0.18c0.402,0,1.038-0.154,2.033-0.477  c1.03-0.333,2.521-0.912,3.321-1.291c3.643-1.725,7.259-5.362,8.795-8.847c0.395-0.893,0.591-1.369,0.396-1.595  c-0.212-0.243-0.768-0.117-2.312,0.313c-2.44,0.681-2.538,0.715-3.481,1.231C57.492,31.295,55.396,33.298,53.4,37.06z   M54.086,38.222c-0.019-0.033,0.035-0.211,0.056-0.277c0.348-1.159,2.193-3.791,3.464-4.941c1.916-1.731,5.41-3.747,7.79-4.494  c0.238-0.074,0.868-0.272,1.176-0.272c0.075,0,0.131,0.012,0.157,0.039c0.03,0.032,0.011,0.108-0.012,0.167  c-0.279,0.742-1.417,2.459-2.435,3.675c-1.176,1.402-2.877,2.826-4.667,3.904c-1.096,0.661-3.988,1.862-5.158,2.142  C54.347,38.191,54.121,38.245,54.086,38.222z M46.453,4.439c-0.978,0.984-0.72,2.506,0.512,3.02c1.964,0.82,3.714-1.892,2.06-3.193  C48.256,3.661,47.153,3.735,46.453,4.439z M48.217,6.266c-0.502,0.458-1.029,0.329-1.252-0.306  c-0.311-0.886,0.725-1.548,1.387-0.886C48.693,5.416,48.641,5.879,48.217,6.266z M56.285,7.944c0-1.579-1.641-2.441-3.119-1.64  c-1.155,0.626-1.469,2.321-0.618,3.334C53.872,11.214,56.285,10.119,56.285,7.944z M55.125,7.52  c0.328,0.789-0.073,1.626-0.823,1.716c-0.719,0.087-1.097-0.253-1.097-0.985C53.204,6.981,54.669,6.423,55.125,7.52z M51.207,40.599  c0.961-2.246,2.686-7.317,3.269-9.608c0.472-1.857,1.04-3.058,0.93-6.017c-0.007-0.201-0.021-0.387-0.034-0.576  c0.003,0.001,0.005,0.008,0.007,0.009c0.142,0.054,1.188-0.848,2.412-2.08c3.175-3.195,3.912-4.871,3.867-8.799  c-0.012-1.021-0.081-2.064-0.154-2.33c-0.186-0.674-0.798-0.699-1.406-0.058c-2.448,2.583-4.109,5.796-4.679,9.05  c-0.144,0.82-0.232,1.618-0.268,2.3c-0.219-1.234-0.556-2.264-0.956-3.397c-0.353-1.001-0.95-2.391-1.319-3.071  c-0.616-1.136-0.656-1.303-0.46-1.954c0.318-1.059,0.252-1.743-0.266-2.773c-0.653-1.299-1.565-1.885-3.067-1.973  c-0.905-0.053-2.096,0.242-2.98,1.607c-1.117,1.725-0.704,3.93,0.978,5.033c0.663,0.435,1.02,0.531,1.983,0.531  c0.789,0,1.348-0.114,1.704-0.347c0.289-0.189,0.608-0.297,0.703-0.238c0.356,0.222,1.333,2.202,1.857,3.762  c0.537,1.599,1.13,3.203,1.13,5.734c0,2.719-0.623,4.531-1.027,6.011c-0.5,1.829-2.681,8.087-3.295,9.454  c-0.57,1.27-1.615,5.006-2.448,8.761c-0.691,3.113-0.723,3.408-0.73,6.816c-0.009,4.14,0.109,5.006,0.682,5.006  c0.379,0,0.395-0.077,0.26-1.213c-0.263-2.211-0.139-5.892,0.28-8.318C48.915,47.665,50.135,43.106,51.207,40.599z M58.144,15.453  c0.515-0.886,2.405-3.465,2.55-3.478c0.042-0.004,0.032,1.11-0.023,2.477c-0.131,3.254-0.478,4.051-2.786,6.412  c-0.904,0.924-1.692,1.66-1.734,1.618C55.837,22.173,57.361,16.801,58.144,15.453z M48.203,15.357  c-1.875-0.669-2.097-2.767-0.962-4.332c0.53-0.731,1.962-1.121,3.018-0.414c0.986,0.601,1.191,1.199,1.173,2.435  C51.406,14.732,49.765,15.914,48.203,15.357z M44.097,41.826c-0.577-0.222-1.733-0.242-2.349-0.039  c-0.578,0.19-1.252,0.67-1.252,0.892c0,0.106,1.425,1.617,3.158,3.35c2.099,2.099,3.255,3.121,3.447,3.048  c0.683-0.259,0.475-2.99-0.355-4.685C46.226,43.333,45.049,42.193,44.097,41.826z M44.203,45.336  c-1.4-1.406-2.372-2.526-2.262-2.607c0.333-0.247,1.829-0.163,2.465,0.137c1.126,0.532,2.253,2.682,2.253,4.299  C46.658,47.785,46.6,47.742,44.203,45.336z M49.834,39.133c0.029,0,0.059-0.004,0.087-0.012c0.379-0.106,0.564-0.943,0.551-2.49  c-0.03-3.395-0.795-5.851-2.639-8.475c-0.952-1.356-5.673-6.252-6.143-6.252c-0.07,0-0.126,0.022-0.169,0.067  c-0.158,0.163-0.172,0.603-0.09,2.765c0.184,4.759,1.066,6.654,4.971,10.677c1.233,1.271,2.398,2.578,2.597,2.913  C49.319,38.868,49.594,39.133,49.834,39.133z M47.022,34.636c-3.186-3.382-4.141-5.155-4.646-8.623  c-0.139-0.955-0.259-1.913-0.268-2.147c0.426,0.073,3.367,2.81,4.729,4.609c0.639,0.844,1.402,2.048,1.702,2.684  c0.565,1.203,1.127,4.102,1.112,5.742l-0.007,0.737l-0.289-0.395C49.122,36.924,48.075,35.755,47.022,34.636z M58.285,44.238  c1.143-1.947,0.311-2.444-2.751-1.641c-2.253,0.59-3.729,1.639-5.074,3.605c-0.83,1.213-1.093,2.252-0.677,2.676  c0.254,0.259,0.36,0.25,1.034-0.087c0.416-0.208,1.309-0.572,2.002-0.815C55.784,46.935,57.317,45.887,58.285,44.238z   M50.509,47.839c0-0.043,0.167-0.404,0.374-0.809c0.76-1.49,3.073-3.3,4.71-3.688c0.944-0.223,2.234-0.206,2.234,0.03  c0,0.402-2.272,2.408-3.427,3.025C53.301,46.983,50.509,48.018,50.509,47.839z"></path></g>
</svg>
</g><g opacity="1" transform="rotate(0 0.5178 331.7226)">
<svg width="398.9644" height="32" x="0.5178" y="331.7226" version="1.1" preserveAspectRatio="none" viewBox="2.6 -26.8 339.11999999999995 27.200000000000003">
  <g transform="matrix(1 0 0 1 0 0)" class="companyName"><path id="id-D6z1nYkh15" d="M16 0.40L16 0.40Q11.88 0.40 8.88-1.28Q5.88-2.96 4.24-5.88Q2.60-8.80 2.60-12.52L2.60-12.52Q2.60-15.40 3.72-17.96Q4.84-20.52 6.78-22.52Q8.72-24.52 11.24-25.66Q13.76-26.80 16.60-26.80L16.60-26.80Q18.64-26.80 20.04-26.54Q21.44-26.28 22.54-25.86Q23.64-25.44 24.76-24.88L24.76-24.88L25-17.76L24.28-17.76L21.52-22.96Q20.16-23.92 19.06-24.36Q17.96-24.80 16.60-24.80L16.60-24.80Q13.84-24.80 11.64-23.36Q9.44-21.92 8.18-19.38Q6.92-16.84 6.92-13.52L6.92-13.52Q6.92-9.80 8.14-7.14Q9.36-4.48 11.44-3.08Q13.52-1.68 16.04-1.68L16.04-1.68Q18.12-1.68 19.54-2.24Q20.96-2.80 22.08-3.56L22.08-3.56L24.76-8.04L25.44-8.04L24.96-1.60Q23.20-0.72 21.20-0.16Q19.20 0.40 16 0.40Z M49.64 0L31.28 0L31.28-0.64L34.16-1.96L34.16-20.44L31.28-21.76L31.28-22.40L41.36-22.40L41.36-21.76L38.12-20.44L38.12-2L46.48-2L49-7.88L49.64-7.88L49.64 0Z M67.20 0.40L67.20 0.40Q64.44 0.40 62.26-0.50Q60.08-1.40 58.84-3.42Q57.60-5.44 57.60-8.76L57.60-8.76L57.60-20.44L54.68-21.76L54.68-22.40L64.48-22.40L64.48-21.76L61.56-20.44L61.56-8.96Q61.56-4.96 63.32-3.40Q65.08-1.84 68.04-1.84L68.04-1.84Q69.76-1.84 71.18-2.50Q72.60-3.16 73.44-4.54Q74.28-5.92 74.28-8.08L74.28-8.08L74.28-20.52L70.92-21.76L70.92-22.40L79.48-22.40L79.48-21.76L76.64-20.48L76.64-8.68Q76.64-5.44 75.44-3.44Q74.24-1.44 72.12-0.52Q70 0.40 67.20 0.40Z M94.28 0L84.28 0L84.28-0.64L87.16-1.96L87.16-20.44L84.28-21.76L84.28-22.40L93.16-22.40Q97.32-22.40 99.54-21.12Q101.76-19.84 101.76-17.28L101.76-17.28Q101.76-15.36 100.56-13.96Q99.36-12.56 97.24-12L97.24-12Q100.32-11.56 102.08-10.12Q103.84-8.68 103.84-6.44L103.84-6.44Q103.84-4.60 102.64-3.14Q101.44-1.68 99.28-0.84Q97.12 0 94.28 0L94.28 0ZM92.28-20.40L92.28-20.40L91.12-20.40L91.12-12.60L92.36-12.60Q94.72-12.60 96.22-13.54Q97.72-14.48 97.72-16.56L97.72-16.56Q97.72-18.44 96.32-19.42Q94.92-20.40 92.28-20.40ZM93.56-10.60L93.56-10.60L91.12-10.60L91.12-2L93.84-2Q96.44-2 98.06-3.04Q99.68-4.08 99.68-6.32L99.68-6.32Q99.68-8.72 98.04-9.66Q96.40-10.60 93.56-10.60Z M131.56 0.20L129.96 0.20L119.72-24.32L116.96-25.76L116.96-26.40L127.56-26.40L127.56-25.76L124.08-24.24L131.56-6.24L131.76-6.24L139.16-24.36L135.84-25.76L135.84-26.40L144.28-26.40L144.28-25.76L142-24.52L131.56 0.20Z M157.52 0L148.12 0L148.12-0.64L150.76-1.96L150.76-20.44L148.12-21.76L148.12-22.40L157.52-22.40L157.52-21.76L154.76-20.44L154.76-1.96L157.52-0.64L157.52 0Z M181.08 0L162.48 0L162.48-0.64L165.36-1.96L165.36-20.44L162.48-21.76L162.48-22.40L180.08-22.40L180.08-16.64L179.44-16.64L177.36-20.40L169.32-20.40L169.32-12.60L175.16-12.60L176.52-15.36L177.16-15.36L177.16-7.88L176.52-7.88L175.16-10.60L169.32-10.60L169.32-2L178.24-2L180.44-6.52L181.08-6.52L181.08 0Z M203.56 0L194.92 0L194.92-0.64L197.44-1.96L207.72-26.60L209.92-26.60L220.08-2.08L222.76-0.64L222.76 0L212.20 0L212.20-0.64L215.72-2.04L212.76-9.24L203.12-9.24L200.20-2L203.56-0.64L203.56 0ZM207.96-21.08L204.04-11.44L211.88-11.44L207.96-21.08Z M238.04 0.20L236.32 0.20L227.56-20.64L225.20-21.76L225.20-22.40L234.64-22.40L234.64-21.76L231.84-20.60L238.08-5.48L238.32-5.48L244.48-20.60L241.56-21.76L241.56-22.40L248.96-22.40L248.96-21.76L246.96-20.64L238.04 0.20Z M271.24 0L252.64 0L252.64-0.64L255.52-1.96L255.52-20.44L252.64-21.76L252.64-22.40L270.24-22.40L270.24-16.64L269.60-16.64L267.52-20.40L259.48-20.40L259.48-12.60L265.32-12.60L266.68-15.36L267.32-15.36L267.32-7.88L266.68-7.88L265.32-10.60L259.48-10.60L259.48-2L268.40-2L270.60-6.52L271.24-6.52L271.24 0Z M284.80 0L276.12 0L276.12-0.64L278.96-1.96L278.96-20.48L276.12-21.76L276.12-22.40L282.08-22.40L295.60-6.36L295.60-20.48L292.08-21.76L292.08-22.40L300.68-22.40L300.68-21.76L297.84-20.48L297.84 0.16L296.00 0.16L281.24-17.24L281.24-2.08L284.80-0.64L284.80 0Z M314.88 0L305.48 0L305.48-0.64L308.12-1.96L308.12-20.44L305.48-21.76L305.48-22.40L314.88-22.40L314.88-21.76L312.12-20.44L312.12-1.96L314.88-0.64L314.88 0Z M329.32 0L319.84 0L319.84-0.64L322.76-1.96L322.76-20.44L319.84-21.76L319.84-22.40L329.52-22.40Q333.20-22.40 335.34-20.90Q337.48-19.40 337.48-16.76L337.48-16.76Q337.48-14.84 336.30-13.46Q335.12-12.08 332.92-11.28L332.92-11.28L339.08-1.88L341.72-0.64L341.72 0L335.44 0L329.12-10.20L326.68-10.20L326.68-2L329.32-0.64L329.32 0ZM328.56-20.44L328.56-20.44L326.68-20.44L326.68-12.16L328.72-12.16Q330.88-12.16 332.12-13.28Q333.36-14.40 333.36-16.32L333.36-16.32Q333.36-18.36 332.10-19.40Q330.84-20.44 328.56-20.44Z"/></g>
</svg>
</g></svg></svg>