<svg version="1.1" preserveAspectRatio="none" xmlns="http://www.w3.org/2000/svg" width="500" height="500" viewBox="0 0 500 500"><rect width="100%" height="100%" fill="#F7F0E8" fill-opacity="1"/><svg viewBox="48.1315 175.0961 472.1123 66" width="333" height="46.552483381602215" x="83.5px" y="226.7238px" xmlns="http://www.w3.org/2000/svg" xmlns:xlink="http://www.w3.org/1999/xlink" preserveAspectRatio="none"><defs></defs><style>.companyName {fill:#883F39;fill-opacity:1;}.icon1 {fill:#F3C1BC;fill-opacity:1;}.icon2 {fill:#C4AFAD;fill-opacity:1;}.icon3 {fill:#B28A87;fill-opacity:1;}.icon3-str {stroke:#B28A87;stroke-opacity:1;}</style><g opacity="1" transform="rotate(0 48.1315 175.0961)">
<svg width="63.2035" height="66" x="48.1315" y="175.0961" version="1.1" preserveAspectRatio="none" viewBox="5.5 2.948934555053711 89.30000305175781 93.2510757446289">
  <g transform="matrix(1 0 0 1 0 0)" class="icon1"><path d="M83.8,23.6l0,17.4l0.1,0c1.7,0.1,3.4,0.8,4.6,2c1.3,1.3,2,3.1,2,4.9c0,1.8-0.7,3.6-2,4.9l-7.8,7.8l-1.3-1.3  l7.8-7.8c1-1,1.5-2.2,1.5-3.6c0-1.4-0.5-2.6-1.5-3.6c-0.5-0.5-1.1-0.9-1.7-1.1c-1.5-0.7-3.4-0.4-4.6,0.8L61.9,62.9  c0,0-2.2,1.9-2.2,5.3c0,0,0,0,0,0c0,0.6,0,26.8,0,27.9l0,0.1l18.7,0l0-17.5C79.8,77.4,91,67.3,92.3,66c2.4-2.3,2.5-5.9,2.5-6.7  c0-0.1,0-35.6,0-35.6c0-2.5-2.5-5.2-5.8-5.2C86.2,18.4,83.8,20.8,83.8,23.6z"></path><path d="M16.4,23.6l0,17.4l-0.1,0c-1.7,0.1-3.4,0.8-4.6,2c-1.3,1.3-2,3.1-2,4.9c0,1.8,0.7,3.6,2,4.9l7.8,7.8l1.3-1.3  l-7.8-7.8c-1-1-1.5-2.2-1.5-3.6c0-1.4,0.5-2.6,1.5-3.6c0.5-0.5,1.1-0.9,1.7-1.1c1.5-0.7,3.4-0.4,4.6,0.8l18.9,18.9  c0,0,2.2,1.9,2.2,5.3c0,0,0,0,0,0c0,0.6,0,26.8,0,27.9l0,0.1l-18.7,0l0-17.5C20.5,77.4,9.3,67.3,8,66c-2.4-2.3-2.5-5.9-2.5-6.7  c0-0.1,0-35.6,0-35.6c0-2.5,2.5-5.2,5.8-5.2C14.1,18.4,16.4,20.8,16.4,23.6z"></path><path d="M50.2,47.2l0.1,0.1c1.4-1.3,18-17,21.2-22.8c0,0,8.4-10.3,0-17.9c0,0-12.2-10.3-21.2,3.7  c-9-14-21.2-3.7-21.2-3.7c-8.4,7.6,0,17.9,0,17.9C32.3,30.1,48.3,45.3,50.2,47.2z"></path></g>
</svg>
</g><g opacity="1" transform="rotate(0 131.335 190.0961)">
<svg width="388.9088" height="36" x="131.335" y="190.0961" version="1.1" preserveAspectRatio="none" viewBox="2.4 -31.64 348.72 32.28">
  <g transform="matrix(1 0 0 1 0 0)" class="companyName"><path id="id-D6z1nYkh15" d="M18.04-31.64Q23.64-31.64 27.92-28.08L27.92-28.08Q28.28-27.80 28.28-27.28L28.28-27.28Q28.28-26.80 27.96-26.42Q27.64-26.04 27.08-26.04L27.08-26.04Q26.64-26.04 26.08-26.52L26.08-26.52Q23.04-29.24 18.04-29.24L18.04-29.24Q14.52-29.24 11.46-27.36Q8.40-25.48 6.60-22.34Q4.80-19.20 4.80-15.64L4.80-15.64Q4.80-11.96 6.58-8.82Q8.36-5.68 11.42-3.84Q14.48-2 18.04-2L18.04-2Q22.76-2 26.32-4.92L26.32-4.92Q26.60-5.12 26.92-5.12L26.92-5.12Q27.40-5.12 27.78-4.76Q28.16-4.40 28.16-3.88L28.16-3.88Q28.16-3.36 27.88-3.04L27.88-3.04Q24.44 0.40 18.04 0.40L18.04 0.40Q13.84 0.40 10.24-1.78Q6.64-3.96 4.52-7.66Q2.40-11.36 2.40-15.64L2.40-15.64Q2.40-19.92 4.50-23.60Q6.60-27.28 10.18-29.46Q13.76-31.64 18.04-31.64L18.04-31.64Z M53.52-2.16Q54.04-2.16 54.38-1.86Q54.72-1.56 54.72-1.08L54.72-1.08Q54.72-0.60 54.38-0.30Q54.04 0 53.52 0L53.52 0L35.88 0Q35.40 0 35.04-0.34Q34.68-0.68 34.68-1.20L34.68-1.20L34.68-30.04Q34.68-30.56 35.04-30.90Q35.40-31.24 35.88-31.24L35.88-31.24Q36.40-31.24 36.74-30.90Q37.08-30.56 37.08-30.04L37.08-30.04L37.08-2.16L53.52-2.16Z M59.72-30.04Q59.72-30.60 60.06-30.92Q60.40-31.24 60.92-31.24L60.92-31.24Q61.48-31.24 61.80-30.92Q62.12-30.60 62.12-30.04L62.12-30.04L62.12-10.20Q62.12-7.76 63.34-5.84Q64.56-3.92 66.74-2.84Q68.92-1.76 71.72-1.76L71.72-1.76Q74.52-1.76 76.70-2.84Q78.88-3.92 80.12-5.84Q81.36-7.76 81.36-10.20L81.36-10.20L81.36-30.04Q81.36-30.60 81.70-30.92Q82.04-31.24 82.56-31.24L82.56-31.24Q83.12-31.24 83.44-30.92Q83.76-30.60 83.76-30.04L83.76-30.04L83.76-10.20Q83.76-7.04 82.22-4.58Q80.68-2.12 77.94-0.74Q75.20 0.64 71.72 0.64L71.72 0.64Q68.24 0.64 65.50-0.74Q62.76-2.12 61.24-4.58Q59.72-7.04 59.72-10.20L59.72-10.20L59.72-30.04Z M102.76-31.24Q104.96-31.24 106.84-30.26Q108.72-29.28 109.82-27.56Q110.92-25.84 110.92-23.68L110.92-23.68Q110.92-21.44 109.72-19.66Q108.52-17.88 106.52-17L106.52-17Q109.32-16.24 110.94-14.18Q112.56-12.12 112.56-9.08L112.56-9.08Q112.56-6.44 111.38-4.38Q110.20-2.32 108.10-1.16Q106 0 103.36 0L103.36 0L93.32 0Q92.60 0 92.18-0.30Q91.76-0.60 91.76-1.20L91.76-1.20L91.76-30.04Q91.76-30.60 92.10-30.92Q92.44-31.24 92.96-31.24L92.96-31.24L102.76-31.24ZM102.76-18.04Q105.32-18.04 106.92-19.60Q108.52-21.16 108.52-23.68L108.52-23.68Q108.52-26.12 106.94-27.48Q105.36-28.84 102.76-28.84L102.76-28.84L94.16-28.84L94.16-18.04L102.76-18.04ZM103.36-2.40Q105.32-2.40 106.86-3.26Q108.40-4.12 109.28-5.64Q110.16-7.16 110.16-9.08L110.16-9.08Q110.16-10.96 109.28-12.46Q108.40-13.96 106.86-14.80Q105.32-15.64 103.36-15.64L103.36-15.64L94.16-15.64L94.16-2.40L103.36-2.40Z M152.72-31.24Q153.20-31.24 153.48-30.92Q153.76-30.60 153.76-30.08L153.76-30.08Q153.76-29.64 153.60-29.28L153.60-29.28L141.64-0.76Q141.28 0 140.56 0L140.56 0Q140.16 0 139.90-0.18Q139.64-0.36 139.48-0.76L139.48-0.76L127.48-29.28Q127.28-29.80 127.28-30.12L127.28-30.12Q127.28-30.64 127.64-30.94Q128.00-31.24 128.52-31.24L128.52-31.24Q128.92-31.24 129.20-31.04Q129.48-30.84 129.68-30.40L129.68-30.40L140.60-4.24L151.40-30.24Q151.60-30.76 151.92-31Q152.24-31.24 152.72-31.24L152.72-31.24Z M158.56-30.04Q158.56-30.56 158.90-30.90Q159.24-31.24 159.76-31.24L159.76-31.24Q160.28-31.24 160.62-30.90Q160.96-30.56 160.96-30.04L160.96-30.04L160.96-1.20Q160.96-0.68 160.62-0.34Q160.28 0 159.76 0L159.76 0Q159.24 0 158.90-0.34Q158.56-0.68 158.56-1.20L158.56-1.20L158.56-30.04Z M189.40-2.40Q189.88-2.40 190.24-2.04Q190.60-1.68 190.60-1.20L190.60-1.20Q190.60-0.68 190.24-0.34Q189.88 0 189.40 0L189.40 0L170.16 0Q169.64 0 169.30-0.34Q168.96-0.68 168.96-1.20L168.96-1.20L168.96-30.04Q168.96-30.56 169.30-30.90Q169.64-31.24 170.16-31.24L170.16-31.24L189.40-31.24Q189.88-31.24 190.24-30.90Q190.60-30.56 190.60-30.04L190.60-30.04Q190.60-29.56 190.24-29.20Q189.88-28.84 189.40-28.84L189.40-28.84L171.36-28.84L171.36-16.84L184.60-16.84Q185.12-16.84 185.46-16.50Q185.80-16.16 185.80-15.64L185.80-15.64Q185.80-15.12 185.46-14.76Q185.12-14.40 184.60-14.40L184.60-14.40L171.36-14.40L171.36-2.40L189.40-2.40Z M231.60-1.72Q231.72-1.48 231.72-1.20L231.72-1.20Q231.72-0.72 231.36-0.36Q231 0 230.52 0L230.52 0Q229.72 0 229.40-0.76L229.40-0.76L226.44-7.84L210.16-7.84L207.20-0.76Q206.92 0 206.08 0L206.08 0Q205.52 0 205.20-0.36Q204.88-0.72 204.88-1.20L204.88-1.20Q204.88-1.48 205-1.72L205-1.72L217.12-30.40Q217.44-31.24 218.28-31.24L218.28-31.24Q219.08-31.24 219.44-30.40L219.44-30.40L231.60-1.72ZM211.08-10L225.52-10L218.28-27.28L211.08-10Z M255.28-31.24Q255.76-31.24 256.04-30.92Q256.32-30.60 256.32-30.08L256.32-30.08Q256.32-29.64 256.16-29.28L256.16-29.28L244.20-0.76Q243.84 0 243.12 0L243.12 0Q242.72 0 242.46-0.18Q242.20-0.36 242.04-0.76L242.04-0.76L230.04-29.28Q229.84-29.80 229.84-30.12L229.84-30.12Q229.84-30.64 230.20-30.94Q230.56-31.24 231.08-31.24L231.08-31.24Q231.48-31.24 231.76-31.04Q232.04-30.84 232.24-30.40L232.24-30.40L243.16-4.24L253.96-30.24Q254.16-30.76 254.48-31Q254.80-31.24 255.28-31.24L255.28-31.24Z M281.56-2.40Q282.04-2.40 282.40-2.04Q282.76-1.68 282.76-1.20L282.76-1.20Q282.76-0.68 282.40-0.34Q282.04 0 281.56 0L281.56 0L262.32 0Q261.80 0 261.46-0.34Q261.12-0.68 261.12-1.20L261.12-1.20L261.12-30.04Q261.12-30.56 261.46-30.90Q261.80-31.24 262.32-31.24L262.32-31.24L281.56-31.24Q282.04-31.24 282.40-30.90Q282.76-30.56 282.76-30.04L282.76-30.04Q282.76-29.56 282.40-29.20Q282.04-28.84 281.56-28.84L281.56-28.84L263.52-28.84L263.52-16.84L276.76-16.84Q277.28-16.84 277.62-16.50Q277.96-16.16 277.96-15.64L277.96-15.64Q277.96-15.12 277.62-14.76Q277.28-14.40 276.76-14.40L276.76-14.40L263.52-14.40L263.52-2.40L281.56-2.40Z M311-30.04Q311-30.56 311.34-30.90Q311.68-31.24 312.20-31.24L312.20-31.24Q312.68-31.24 313.04-30.90Q313.40-30.56 313.40-30.04L313.40-30.04L313.40-1.20Q313.40-0.68 313.04-0.34Q312.68 0 312.20 0L312.20 0Q311.64 0 311.32-0.36L311.32-0.36L290.96-26.84L290.96-1.20Q290.96-0.68 290.62-0.34Q290.28 0 289.76 0L289.76 0Q289.24 0 288.90-0.34Q288.56-0.68 288.56-1.20L288.56-1.20L288.56-30.04Q288.56-30.56 288.90-30.90Q289.24-31.24 289.76-31.24L289.76-31.24Q290.32-31.24 290.68-30.84L290.68-30.84L311-4.40L311-30.04Z M321.40-30.04Q321.40-30.56 321.74-30.90Q322.08-31.24 322.60-31.24L322.60-31.24Q323.12-31.24 323.46-30.90Q323.80-30.56 323.80-30.04L323.80-30.04L323.80-1.20Q323.80-0.68 323.46-0.34Q323.12 0 322.60 0L322.60 0Q322.08 0 321.74-0.34Q321.40-0.68 321.40-1.20L321.40-1.20L321.40-30.04Z M350.80-1.84Q351.12-1.28 351.12-0.92L351.12-0.92Q351.12-0.48 350.78-0.24Q350.44 0 349.80 0L349.80 0Q349.40 0 349.16-0.16Q348.92-0.32 348.72-0.64L348.72-0.64L341.36-12.40L340.64-12.40L334.20-12.40L334.20-1.20Q334.20-0.68 333.88-0.34Q333.56 0 333.00 0L333.00 0Q332.48 0 332.14-0.34Q331.80-0.68 331.80-1.20L331.80-1.20L331.80-30.04Q331.80-30.60 332.14-30.92Q332.48-31.24 333.00-31.24L333.00-31.24L340.64-31.24Q343.52-31.24 345.80-30.04Q348.08-28.84 349.36-26.68Q350.64-24.52 350.64-21.76L350.64-21.76Q350.64-18.48 348.82-16.10Q347.00-13.72 343.92-12.84L343.92-12.84L350.80-1.84ZM334.20-14.80L340.64-14.80Q342.84-14.80 344.56-15.68Q346.28-16.56 347.26-18.16Q348.24-19.76 348.24-21.76L348.24-21.76Q348.24-23.80 347.26-25.42Q346.28-27.04 344.56-27.94Q342.84-28.84 340.64-28.84L340.64-28.84L334.20-28.84L334.20-14.80Z"/></g>
</svg>
</g></svg></svg>